<svg width="96" height="21" viewBox="0 0 96 21" fill="none" xmlns="http://www.w3.org/2000/svg">
<path d="M14.8361 13.6933C14.8361 14.1219 14.7586 14.6321 14.6279 15.3341L13.7545 20.3012H10.8893L11.6526 15.9708C11.7179 15.5871 11.7954 15.032 11.7954 14.6484C11.7954 13.9341 11.4934 13.5178 10.8893 13.5178C10.0934 13.5178 9.34654 14.4239 9.10573 15.8116L8.30985 20.3012H5.44467L6.2079 15.9708C6.2732 15.5259 6.35075 14.9994 6.35075 14.6484C6.35075 13.9341 6.04872 13.5178 5.34671 13.5178C4.58348 13.5178 3.91412 14.3627 3.66107 15.8116L2.86518 20.3012H0L1.4979 11.7995H4.36308L4.15493 12.9791L4.99979 12.073C5.58752 11.7546 6.14668 11.5791 6.92624 11.5791C8.30985 11.5791 9.08941 12.2322 9.31389 13.1056L10.1261 12.1995C10.8118 11.7057 11.4322 11.5791 12.2117 11.5791C14.0565 11.5791 14.8361 12.5505 14.8361 13.6974V13.6933Z" fill="#4589DA"/>
<path d="M15.3789 20.2971L16.8931 11.7954H19.7583L18.2441 20.2971H15.3789ZM20.2195 9.53428C20.2195 10.2975 19.693 11.1424 18.5624 11.1424C17.7502 11.1424 17.2564 10.6975 17.2564 9.95059C17.2564 9.20369 17.7992 8.3425 18.9134 8.3425C19.7257 8.3425 20.2195 8.78738 20.2195 9.53428Z" fill="#4589DA"/>
<path d="M29.6559 13.7545C29.6559 14.1994 29.5906 14.6769 29.4641 15.3952L28.5907 20.2971H25.7255L26.4887 16.0319C26.5826 15.4728 26.6479 15.0116 26.6479 14.7095C26.6479 13.9953 26.3622 13.5177 25.5173 13.5177C24.6112 13.5177 23.8929 14.4238 23.5419 16.3503L22.8562 20.2971H19.991L21.4889 11.7954H24.3541L24.1296 13.0035L25.0847 12.0647C25.6724 11.7464 26.3091 11.5709 27.0928 11.5709C28.8274 11.5709 29.6559 12.4933 29.6559 13.7504V13.7545Z" fill="#4589DA"/>
<path d="M30.2274 20.2971L31.7416 11.7954H34.6068L33.0925 20.2971H30.2274ZM35.068 9.53428C35.068 10.2975 34.5415 11.1424 33.4109 11.1424C32.5987 11.1424 32.1048 10.6975 32.1048 9.95059C32.1048 9.20369 32.6477 8.3425 33.7619 8.3425C34.5741 8.3425 35.068 8.78738 35.068 9.53428Z" fill="#4589DA"/>
<path d="M42.6431 8.3058H51.553L50.8305 12.3424H41.9207L40.5085 20.3012H35.321L38.8392 0.408173H53.8018L53.0794 4.44474H43.3084L42.6472 8.3058H42.6431Z" fill="#4589DA"/>
<path d="M73.605 6.95073L73.5765 7.24052H68.3889V6.95073C68.3318 4.81613 67.2053 3.80801 65.1034 3.80801C62.0463 3.80801 59.3934 6.68952 59.3934 12.1383C59.3934 15.6279 60.9484 16.8932 62.8259 16.8932C64.8421 16.8932 66.3727 15.6524 67.1808 13.4607L67.2951 13.1709H72.4826L72.3969 13.4607C71.0705 18.2482 67.2665 20.6971 62.279 20.6971C57.2914 20.6971 53.9487 17.8727 53.9487 12.4811C53.9487 4.72634 59.3689 0 65.5646 0C71.246 0 73.8948 3.02845 73.6091 6.94665H73.605V6.95073Z" fill="#4589DA"/>
<path d="M94.1591 10.9873C93.9265 12.2852 93.8122 12.8893 93.5265 14.0729C92.5755 17.9666 90.2123 20.7053 84.1269 20.7053C78.621 20.7053 76.0537 18.1666 76.0537 14.881C76.0537 13.8158 76.168 12.8934 76.5435 10.7016L78.3598 0.408173H83.5473L81.4127 12.5179C81.2984 13.1505 81.2413 13.6403 81.2413 14.1913C81.2413 15.9789 82.7106 16.9014 84.4983 16.9014C86.5431 16.9014 87.841 16.1504 88.4491 13.7015C88.5349 13.3546 88.592 13.0689 88.6777 12.5179L90.8123 0.408173H95.9998L94.155 10.9873H94.1591Z" fill="#4589DA"/>
</svg>
